<?xml version="1.0" encoding="UTF-8" standalone="no"?>
<!DOCTYPE svg PUBLIC "-//W3C//DTD SVG 1.1//EN" "http://www.w3.org/Graphics/SVG/1.1/DTD/svg11.dtd">
<svg width="100%" height="100%" viewBox="0 0 1182 1182" version="1.1" xmlns="http://www.w3.org/2000/svg" xmlns:xlink="http://www.w3.org/1999/xlink" xml:space="preserve" xmlns:serif="http://www.serif.com/" style="fill-rule:evenodd;clip-rule:evenodd;stroke-linecap:round;stroke-linejoin:round;stroke-miterlimit:1.5;">
    <g transform="matrix(3.33413,0,0,3.33413,-6182.01,-7062.8)">
        <g>
            <circle cx="1995.64" cy="2274.85" r="15.371" style="fill:rgb(214,172,132);stroke:rgb(151,0,0);stroke-width:1.87px;"/>
            <g transform="matrix(1,0,0,1,38.4585,15.6249)">
                <circle cx="1995.64" cy="2274.85" r="15.371" style="fill:rgb(214,172,132);stroke:rgb(151,0,0);stroke-width:1.87px;"/>
            </g>
            <g transform="matrix(1,0,0,1,25.0552,-30.0054)">
                <circle cx="1995.64" cy="2274.85" r="15.371" style="fill:rgb(214,172,132);stroke:rgb(151,0,0);stroke-width:1.87px;"/>
            </g>
            <g transform="matrix(1,0,0,1,7.07039,42.1181)">
                <circle cx="1995.64" cy="2274.85" r="15.371" style="fill:rgb(214,172,132);stroke:rgb(151,0,0);stroke-width:1.87px;"/>
            </g>
            <g transform="matrix(1,0,0,1,35.3151,-114.149)">
                <circle cx="1995.64" cy="2274.85" r="15.371" style="fill:rgb(214,172,132);stroke:rgb(151,0,0);stroke-width:1.87px;"/>
            </g>
            <g transform="matrix(1,0,0,1,67.92,-38.7811)">
                <circle cx="1995.64" cy="2274.85" r="15.371" style="fill:rgb(214,172,132);stroke:rgb(151,0,0);stroke-width:1.87px;"/>
            </g>
            <g transform="matrix(1,0,0,1,-0.359511,-57.6878)">
                <circle cx="1995.64" cy="2274.85" r="15.371" style="fill:rgb(214,172,132);stroke:rgb(151,0,0);stroke-width:1.87px;"/>
            </g>
            <g transform="matrix(1,0,0,1,87.9512,51.0967)">
                <circle cx="1995.64" cy="2274.85" r="15.371" style="fill:rgb(214,172,132);stroke:rgb(151,0,0);stroke-width:1.87px;"/>
            </g>
            <g transform="matrix(1,0,0,1,49.8522,72.99)">
                <circle cx="1995.64" cy="2274.85" r="15.371" style="fill:rgb(214,172,132);stroke:rgb(151,0,0);stroke-width:1.87px;"/>
            </g>
            <g transform="matrix(1,0,0,1,92.2654,-100.783)">
                <circle cx="1995.64" cy="2274.85" r="15.371" style="fill:rgb(214,172,132);stroke:rgb(151,0,0);stroke-width:1.87px;"/>
            </g>
        </g>
        <g transform="matrix(-0.999452,-0.0330888,0.0330888,-0.999452,4104.33,4669.14)">
            <circle cx="1995.64" cy="2274.85" r="15.371" style="fill:rgb(214,172,132);stroke:rgb(151,0,0);stroke-width:1.87px;"/>
            <g transform="matrix(1,0,0,1,38.4585,15.6249)">
                <circle cx="1995.64" cy="2274.85" r="15.371" style="fill:rgb(214,172,132);stroke:rgb(151,0,0);stroke-width:1.87px;"/>
            </g>
            <g transform="matrix(1,0,0,1,25.0552,-30.0054)">
                <circle cx="1995.64" cy="2274.85" r="15.371" style="fill:rgb(214,172,132);stroke:rgb(151,0,0);stroke-width:1.87px;"/>
            </g>
            <g transform="matrix(1,0,0,1,7.07039,42.1181)">
                <circle cx="1995.64" cy="2274.85" r="15.371" style="fill:rgb(214,172,132);stroke:rgb(151,0,0);stroke-width:1.87px;"/>
            </g>
            <g transform="matrix(1,0,0,1,35.3151,-114.149)">
                <circle cx="1995.64" cy="2274.85" r="15.371" style="fill:rgb(214,172,132);stroke:rgb(151,0,0);stroke-width:1.87px;"/>
            </g>
            <g transform="matrix(1,0,0,1,67.92,-38.7811)">
                <circle cx="1995.64" cy="2274.85" r="15.371" style="fill:rgb(214,172,132);stroke:rgb(151,0,0);stroke-width:1.87px;"/>
            </g>
            <g transform="matrix(1,0,0,1,-0.359511,-57.6878)">
                <circle cx="1995.64" cy="2274.85" r="15.371" style="fill:rgb(214,172,132);stroke:rgb(151,0,0);stroke-width:1.87px;"/>
            </g>
            <g transform="matrix(1,0,0,1,87.9512,51.0967)">
                <circle cx="1995.64" cy="2274.85" r="15.371" style="fill:rgb(214,172,132);stroke:rgb(151,0,0);stroke-width:1.87px;"/>
            </g>
            <g transform="matrix(1,0,0,1,49.8522,72.99)">
                <circle cx="1995.64" cy="2274.85" r="15.371" style="fill:rgb(214,172,132);stroke:rgb(151,0,0);stroke-width:1.87px;"/>
            </g>
            <g transform="matrix(1,0,0,1,92.2654,-100.783)">
                <circle cx="1995.64" cy="2274.85" r="15.371" style="fill:rgb(214,172,132);stroke:rgb(151,0,0);stroke-width:1.87px;"/>
            </g>
        </g>
        <g transform="matrix(0.85834,-0.513081,0.513081,0.85834,-956.913,1451.28)">
            <circle cx="1995.64" cy="2274.85" r="15.371" style="fill:rgb(214,172,132);stroke:rgb(151,0,0);stroke-width:1.87px;"/>
            <g transform="matrix(1,0,0,1,38.4585,15.6249)">
                <circle cx="1995.64" cy="2274.85" r="15.371" style="fill:rgb(214,172,132);stroke:rgb(151,0,0);stroke-width:1.87px;"/>
            </g>
            <g transform="matrix(1,0,0,1,25.0552,-30.0054)">
                <circle cx="1995.64" cy="2274.85" r="15.371" style="fill:rgb(214,172,132);stroke:rgb(151,0,0);stroke-width:1.87px;"/>
            </g>
            <g transform="matrix(1,0,0,1,7.07039,42.1181)">
                <circle cx="1995.64" cy="2274.85" r="15.371" style="fill:rgb(214,172,132);stroke:rgb(151,0,0);stroke-width:1.87px;"/>
            </g>
            <g transform="matrix(1,0,0,1,35.3151,-114.149)">
                <circle cx="1995.64" cy="2274.85" r="15.371" style="fill:rgb(214,172,132);stroke:rgb(151,0,0);stroke-width:1.87px;"/>
            </g>
            <g transform="matrix(1,0,0,1,67.92,-38.7811)">
                <circle cx="1995.64" cy="2274.85" r="15.371" style="fill:rgb(214,172,132);stroke:rgb(151,0,0);stroke-width:1.87px;"/>
            </g>
            <g transform="matrix(1,0,0,1,-0.359511,-57.6878)">
                <circle cx="1995.64" cy="2274.85" r="15.371" style="fill:rgb(214,172,132);stroke:rgb(151,0,0);stroke-width:1.87px;"/>
            </g>
            <g transform="matrix(1,0,0,1,87.9512,51.0967)">
                <circle cx="1995.64" cy="2274.85" r="15.371" style="fill:rgb(214,172,132);stroke:rgb(151,0,0);stroke-width:1.87px;"/>
            </g>
            <g transform="matrix(1,0,0,1,49.8522,72.99)">
                <circle cx="1995.64" cy="2274.85" r="15.371" style="fill:rgb(214,172,132);stroke:rgb(151,0,0);stroke-width:1.87px;"/>
            </g>
            <g transform="matrix(1,0,0,1,92.2654,-100.783)">
                <circle cx="1995.64" cy="2274.85" r="15.371" style="fill:rgb(214,172,132);stroke:rgb(151,0,0);stroke-width:1.87px;"/>
            </g>
        </g>
    </g>
</svg>
